# xmcd
#
# Track frame offsets:
# 150
# 17534
# 41321
# 60526
# 82266
# 113902
# 152567
# 176931
# 205397
# 235573
# 257683
# 283844
# 296575
#
# Disc length: 4332 seconds
#
#
# Revision: 22
# Processed by: cddbd v1.5.2PL0 Copyright (c) Steve Scherf et al.
# Submitted via: FreeRIP 2.96 
#
DISCID=b410ea0d
DTITLE=Toque no Altar - Toque no Altar...ao vivo
DYEAR=2004
DGENRE=Gospel
TTITLE0=Aleluia, Hosana
TTITLE1=Meu Melhor
TTITLE2=Te Adoro Senhor
TTITLE3=Toque No Altar
TTITLE4=Sacia-Me
TTITLE5=Leva-Me Além
TTITLE6=Te Louvarei
TTITLE7=Não Tenho Outro Bem
TTITLE8=Meu Amado
TTITLE9=Santo
TTITLE10=Abro Mão
TTITLE11=Palavra Profética
TTITLE12=Faz Chover (Let It Rain)
EXTD=
EXTT0=
EXTT1=
EXTT2=
EXTT3=
EXTT4=
EXTT5=
EXTT6=
EXTT7=
EXTT8=
EXTT9=
EXTT10=
EXTT11=
EXTT12=
PLAYORDER=
